<svg xmlns="http://www.w3.org/2000/svg" width="420" height="217.67"><path fill="#005640" d="M213.43 64.9c-1.952 14.588-2.073 29.164-1.856 43.645-7.805-13.065-11.793-27.627-10.82-43.03l-2.366.108c-.455.022-.796-.26-.855-.653l-4.553.224c-.464.024-.79-.336-.7-.773l3.795-11.25c.084-.415.508-.733.94-.705l2.398.252a1.14 1.14 0 0 1 1.071-.68l2.33.107c3.78-15.404 12.259-29.965 24.095-43.03-4.683 14.48-9.059 29.057-11.607 43.645l3.32 1.364 31.78-1.563c.471-.023.905-.333.986-.784l.001-.008c1.998-11.513 4.53-24.36 6.979-35.775a1.73 1.73 0 0 0-.373-1.541 796 796 0 0 1-8.912-11.072q-.55-.69-1.559-.74-27.348-1.33-54.7-2.628-.93-.045-1.784.619a1065 1065 0 0 0-13.767 10.902q-.845.68-1.038 1.623a961 961 0 0 0-14.663 96.123q-.098.96.533 1.636a887 887 0 0 0 10.302 10.86c.379.393 1.583.274 1.583.274h52.747s1.317-.292 1.772-.719c4.116-3.9 10.477-10.322 14.637-14.131.517-.47.806-2.104.872-2.694a881 881 0 0 1 3.43-27.18c.53-3.736 1.201-7.816 1.815-11.621.126-.784-.492-1.494-1.31-1.508l-30.801-.534zM29.795 211.977c-11.786 0-21.396-8.408-21.396-22.146 0-11.337 6.532-20.796 18.317-20.796 6.457 0 12.839 2.552 12.99 10.21h2.7l2.253-11.562c-3.979-.374-10.886-1.875-16.89-1.875-17.267 0-27.777 12.386-27.777 26.575 0 14.789 11.56 25.3 26.35 25.3 13.513 0 19.369-9.235 19.369-9.235l-1.127-1.727s-5.78 5.256-14.79 5.256m157.557-2.627-10.812-16.066v-1.125c3.753-2.101 9.61-6.681 9.61-13.362 0-6.382-5.105-12.088-18.468-12.088h-19.07v2.028c5.557 1.125 5.933 1.876 5.933 5.48V209.8c0 2.552-1.957 4.43-5.11 4.804-2.553-.375-3.83-1.35-5.48-5.705l-16.592-42.716-3.753.826-17.643 43.992c-.525 1.38-1.626 2.76-3.96 3.284l-6.417-.656s.375-1.802.375-4.054v-33.633c0-6.232 2.479-9.158 2.479-9.158l-.376-.3s-1.952.224-9.91.224h-5.706v2.028c5.406 1.125 5.406 1.876 5.406 5.48v14.489l-.826.825H60.906v-13.588c0-6.232 2.477-9.234 2.477-9.234l-.376-.3s-1.952.3-9.909.3h-5.63v2.028c5.33 1.125 5.33 1.876 5.33 5.48v35.359c0 2.702-1.952 4.504-5.18 4.88v2.552l19.219-.451.3-2.252-6.606-.675s.375-1.802.375-4.054v-15.69l.825-.751h26.126V209.8c0 2.552-2.027 4.279-5.255 4.655v2.552l19.292-.226h13.307l.374-2.326-6.38-.826L114 201.092l1.051-.75h17.041l4.13 11.035c.826 2.253-.975 2.853-3.078 2.928v2.703l16.32-.078v.035l19.37-.45.2-2.21-6.757-.675s.376-1.652.376-3.829v-14.038l.825-.827h4.504l8.934 13.364c3.228 4.729 4.505 8.257 4.505 8.257l.3.225h12.461l.3-2.552-.825-.076c-1.726-.149-3.153-.298-6.305-4.804m-71.776-12.537 7.884-20.57c.375 1.352 1.126 3.53 1.65 5.105l5.707 15.465zm53.082-5.18h-6.005v-20.72l.825-.826h2.403c8.257 0 11.335 4.955 11.335 10.81 0 7.133-4.58 10.737-8.558 10.737m49.972 21.77h-10.174s.376-1.878.376-4.13v-33.332c0-6.232 2.477-9.234 2.477-9.234l-.376-.3s-2.101.3-9.909.3h-5.705v2.027c5.405 1.126 5.405 1.876 5.405 5.48V209.8c0 2.702-1.727 4.278-5.03 4.654v2.552s7.207-.225 11.56-.225h22.412l3.153-13.964h-2.704c-3.753 8.033-5.18 10.587-11.485 10.587m42.04-47.599c-18.243 0-27.852 13.286-27.852 26.65 0 13.213 9.458 25.225 25.75 25.225 17.415 0 28-13.813 28-27.702 0-12.988-9.233-24.173-25.899-24.173m-.452 48.57c-11.786 0-18.392-12.76-18.392-23.947 0-10.885 6.155-21.32 17.342-21.32 11.936 0 18.317 11.637 18.317 22.822 0 11.035-6.156 22.446-17.267 22.446m34.131-47.678c-3.077 0-5.029-.45-5.029-.45l-2.327 12.987h2.702c2.928-7.657 5.18-9.158 10.21-9.158h5.37v39.488c0 2.703-1.953 4.504-5.18 4.88v2.552l20.119-.45.3-2.253-7.508-.674s.376-1.803.376-4.055v-38.663l.827-.825h5.218c5.706 0 8.183 1.501 7.957 9.158h2.778l2.328-12.986s-2.328.45-5.406.45zm46.319 0c-3.078 0-5.03-.45-5.03-.45l-2.327 12.987h2.703c2.928-7.657 5.18-9.158 10.21-9.158h5.37v39.488c0 2.703-1.953 4.504-5.18 4.88v2.552l20.117-.45.302-2.253-7.508-.674s.376-1.803.376-4.055v-38.663l.825-.825h5.219c5.706 0 8.182 1.501 7.957 9.158h2.779l2.328-12.986s-2.328.45-5.406.45zm76.612 37.612c-3.755 7.883-4.655 9.086-11.11 9.086h-11.262s.375-1.952.375-4.206v-15.388l.825-.827h12.388v5.63h3.678v-13.738l-2.928.45-.6 4.355h-13.363v-18.769l.825-.825h9.236c6.005 0 8.482 1.427 8.106 9.159h2.703l2.328-12.837s-2.477.3-5.556.3h-31.68v2.027c5.555 1.126 5.931 1.876 5.931 5.48v35.585c0 2.702-1.952 4.278-5.18 4.654v2.552s7.356-.225 11.71-.225h23.499l2.777-12.462z"/><path fill="#aa9766" d="M9.152 156.165c3.047 0 5.422-2.094 5.89-5.016l2.282-14.36h-3.297l-2.297 14.47c-.187 1.156-.86 1.843-2.093 1.843-1.22 0-1.688-.687-1.5-1.843l2.297-14.47H7.137l-2.282 14.36c-.468 2.922 1.266 5.016 4.297 5.016m22.363-19.374-1.937 12.156-2.938-12.156h-2.797l-3.015 19h2.797l1.906-12.079L28.5 155.79h2.796l3.016-19zm6.543 19h3.297l3.015-19h-3.297zm20.534-19-4.64 13.718-.297-13.718h-3.266l.688 19h3.984l6.75-19zm16.933 3.062.485-3.062h-8.188l-3.015 19h8.187l.484-3.063h-4.89l.75-4.688h3.765l.485-3.062h-3.766l.813-5.125zm14.718 15.937-1.281-8.344a5.54 5.54 0 0 0 2.469-3.812l.312-1.984c.453-2.875-1.39-4.86-4.468-4.86h-4.938l-3.015 19h3.297l1.156-7.328h1.906l1.125 7.328zm-5.093-15.937h1.859c1.094 0 1.625.625 1.453 1.687l-.344 2.172c-.172 1.078-.906 1.703-2 1.703H84.26zm16.28 16.312c3.235 0 5.657-2.172 6.188-5.547 1-6.25-5.968-5.86-5.437-9.187.203-1.282 1-1.953 1.984-1.953.953 0 1.61.593 1.453 1.578l-.234 1.515h3.297l.187-1.234c.485-3.016-1.172-4.922-4.218-4.922s-5.344 2.078-5.844 5.266c-.922 5.796 6.047 5.437 5.437 9.312-.234 1.437-1.218 2.219-2.296 2.219-1.094 0-1.907-.641-1.672-2.203l.203-1.203H97.18l-.14.812c-.532 3.375 1.187 5.547 4.39 5.547m11.837-.375h3.296l3.016-19h-3.297zm22.44-19h-10.515l-.484 3.063h3.625l-2.532 15.936h3.297l2.531-15.936h3.594zm16.668 0h-3.406l-3.766 8.219-1.125-8.219h-3.453l2.235 12.406-1.047 6.594h3.296l1.047-6.594zm17.223 19.374c3.172 0 5.625-2.093 6.093-5.015l1.548-9.719c.453-2.922-1.344-5.015-4.531-5.015-3.204 0-5.61 2.093-6.063 5.015l-1.547 9.719c-.468 2.922 1.312 5.015 4.5 5.015m.469-3.062c-1.407 0-1.875-.688-1.688-1.844l1.562-9.921c.187-1.157.875-1.86 2.297-1.86 1.406 0 1.89.703 1.703 1.86l-1.562 9.921c-.187 1.156-.89 1.844-2.312 1.844m22.128-13.25.485-3.062h-8.188l-3.016 19h3.297l1.126-7.141h4.031l.484-3.047h-4.031l.921-5.75zm23.582-3.062-1.937 12.156-2.938-12.156h-2.796l-3.016 19h2.796l1.907-12.079 2.968 12.078h2.797l3.016-19zm11.54 19.374c3.17 0 5.624-2.094 6.093-5.016l1.547-9.718c.453-2.922-1.344-5.016-4.531-5.016-3.203 0-5.61 2.094-6.062 5.016l-1.548 9.718c-.468 2.922 1.313 5.016 4.5 5.016m.468-3.063c-1.406 0-1.875-.687-1.687-1.843l1.562-9.922c.187-1.156.875-1.86 2.296-1.86 1.407 0 1.891.704 1.704 1.86l-1.563 9.922c-.187 1.156-.89 1.843-2.312 1.843m22.327 2.688-1.281-8.344a5.54 5.54 0 0 0 2.469-3.812l.312-1.984c.453-2.875-1.39-4.86-4.468-4.86h-4.937l-3.016 19h3.296l1.157-7.328h1.906l1.125 7.328zm-5.094-15.937h1.86c1.093 0 1.625.625 1.453 1.687l-.344 2.172c-.172 1.078-.906 1.703-2 1.703h-1.86zm23.269-3.063h-10.515l-.485 3.063h3.625l-2.53 15.937h3.296l2.531-15.937h3.594zm12.964 0-1.296 8.188h-4.032l1.297-8.188h-3.297l-3.016 19h3.297l1.234-7.75h4.031l-1.234 7.75h3.297l3.016-19zm21.274 19.375c3.125 0 5.625-2.094 6.093-5.016l.406-2.547h-3.296l-.422 2.656c-.187 1.157-1.031 1.844-2.313 1.844-1.265 0-1.875-.687-1.687-1.844l1.562-9.921c.187-1.156 1.016-1.86 2.297-1.86 1.265 0 1.89.704 1.703 1.86l-.407 2.625h3.297l.407-2.531c.453-2.922-1.422-5.016-4.532-5.016s-5.609 2.094-6.062 5.016l-1.547 9.718c-.468 2.922 1.39 5.016 4.5 5.016zm19.112-.375h3.281l-.765-19h-4l-6.766 19h3.188l1.53-4.078h3.298zm-.297-7.14h-2.219l2.329-7.563zm20.511 7.14-1.28-8.344a5.54 5.54 0 0 0 2.468-3.812l.313-1.985c.453-2.875-1.39-4.859-4.469-4.859h-4.937l-3.016 19h3.297l1.156-7.328h1.906l1.125 7.328zm-5.093-15.937h1.86c1.093 0 1.624.625 1.452 1.687l-.344 2.172c-.171 1.078-.906 1.703-2 1.703h-1.859zm16.374 16.311c3.172 0 5.625-2.093 6.094-5.015l1.547-9.719c.454-2.922-1.343-5.015-4.53-5.015-3.204 0-5.61 2.093-6.063 5.015l-1.547 9.719c-.469 2.922 1.312 5.015 4.5 5.015m.47-3.062c-1.407 0-1.876-.688-1.688-1.844l1.562-9.921c.187-1.157.875-1.86 2.297-1.86 1.406 0 1.89.703 1.703 1.86l-1.562 9.921c-.187 1.156-.89 1.844-2.313 1.844m15.186-.375 2.531-15.937h-3.297l-3.016 19h8.188l.485-3.063zm10.414 3.062h3.297l3.015-19h-3.296zm20.722-19-1.937 12.157-2.938-12.156h-2.796l-3.016 19h2.796l1.907-12.079 2.968 12.078h2.797l3.016-19zm14.07 19h3.282l-.766-19h-4l-6.765 19h3.187l1.531-4.078h3.297zm-.296-7.14h-2.22l2.329-7.563z" aria-label="UNIVERSITY OF NORTH CAROLINA"/></svg>